<svg width="100" height="30" viewBox="0 0 100 30" fill="none" xmlns="http://www.w3.org/2000/svg">
<rect width="100" height="30" rx="15" fill="#F2F5F8"/>
<path d="M35.7863 21.07C34.6757 21.07 33.7097 20.8693 32.8883 20.468C32.067 20.0573 31.437 19.4787 30.9983 18.732C30.5597 17.9853 30.3403 17.1173 30.3403 16.128C30.3403 14.756 30.597 13.538 31.1103 12.474C31.633 11.41 32.3377 10.5887 33.2243 10.01C34.111 9.422 35.0957 9.128 36.1783 9.128C37.1863 9.128 37.9517 9.38933 38.4743 9.912C38.997 10.4253 39.2583 11.1067 39.2583 11.956C39.2583 12.5253 39.1557 12.9827 38.9503 13.328C38.7543 13.6733 38.4697 13.846 38.0963 13.846C37.835 13.846 37.6297 13.7853 37.4803 13.664C37.331 13.5427 37.2563 13.3653 37.2563 13.132C37.2563 13.048 37.275 12.894 37.3123 12.67C37.3683 12.39 37.3963 12.166 37.3963 11.998C37.3963 11.1487 36.9437 10.724 36.0383 10.724C35.4223 10.724 34.8343 10.9247 34.2743 11.326C33.7143 11.7273 33.2617 12.32 32.9163 13.104C32.571 13.8787 32.3983 14.8027 32.3983 15.876C32.3983 16.996 32.711 17.864 33.3363 18.48C33.9617 19.0867 34.8857 19.39 36.1083 19.39C36.715 19.39 37.3263 19.3153 37.9423 19.166C38.5677 19.0073 39.2583 18.7693 40.0143 18.452C40.1543 18.396 40.271 18.368 40.3643 18.368C40.5137 18.368 40.6257 18.424 40.7003 18.536C40.775 18.648 40.8123 18.7927 40.8123 18.97C40.8123 19.5393 40.5043 19.9593 39.8883 20.23C39.2257 20.5193 38.535 20.734 37.8163 20.874C37.107 21.0047 36.4303 21.07 35.7863 21.07ZM46.7173 16.702C46.8386 16.702 46.9319 16.7627 46.9973 16.884C47.0626 17.0053 47.0953 17.1593 47.0953 17.346C47.0953 17.794 46.9599 18.06 46.6893 18.144C46.1293 18.34 45.5133 18.452 44.8413 18.48C44.6639 19.264 44.3139 19.894 43.7913 20.37C43.2686 20.8367 42.6759 21.07 42.0133 21.07C41.4533 21.07 40.9726 20.9347 40.5713 20.664C40.1793 20.3933 39.8806 20.034 39.6753 19.586C39.4699 19.138 39.3673 18.6527 39.3673 18.13C39.3673 17.4207 39.5026 16.7907 39.7733 16.24C40.0439 15.68 40.4173 15.246 40.8933 14.938C41.3693 14.6207 41.8966 14.462 42.4753 14.462C43.1846 14.462 43.7539 14.7093 44.1833 15.204C44.6219 15.6893 44.8786 16.2913 44.9533 17.01C45.3919 16.982 45.9146 16.8887 46.5213 16.73C46.5959 16.7113 46.6613 16.702 46.7173 16.702ZM42.1253 19.586C42.4239 19.586 42.6806 19.4647 42.8953 19.222C43.1193 18.9793 43.2686 18.6293 43.3433 18.172C43.0539 17.976 42.8299 17.7193 42.6713 17.402C42.5219 17.0847 42.4473 16.7487 42.4473 16.394C42.4473 16.2447 42.4613 16.0953 42.4893 15.946H42.4193C42.0459 15.946 41.7333 16.128 41.4813 16.492C41.2386 16.8467 41.1173 17.3507 41.1173 18.004C41.1173 18.5173 41.2153 18.9093 41.4113 19.18C41.6166 19.4507 41.8546 19.586 42.1253 19.586ZM46.8877 21.07C46.533 21.07 46.281 20.8833 46.1317 20.51C45.9917 20.1367 45.9217 19.5393 45.9217 18.718C45.9217 17.5047 46.0943 16.352 46.4397 15.26C46.5237 14.9893 46.659 14.7933 46.8457 14.672C47.0417 14.5413 47.3123 14.476 47.6577 14.476C47.8443 14.476 47.975 14.4993 48.0497 14.546C48.1243 14.5927 48.1617 14.6813 48.1617 14.812C48.1617 14.9613 48.0917 15.2973 47.9517 15.82C47.8583 16.1933 47.7837 16.52 47.7277 16.8C47.6717 17.0707 47.625 17.4113 47.5877 17.822C47.8397 17.094 48.1383 16.478 48.4837 15.974C48.8383 15.47 49.1977 15.0967 49.5617 14.854C49.935 14.602 50.285 14.476 50.6117 14.476C50.9383 14.476 51.167 14.5507 51.2977 14.7C51.4377 14.8493 51.5077 15.078 51.5077 15.386C51.5077 15.6847 51.419 16.226 51.2417 17.01C51.167 17.346 51.1157 17.598 51.0877 17.766C51.5543 16.618 52.0723 15.7827 52.6417 15.26C53.211 14.7373 53.743 14.476 54.2377 14.476C54.8443 14.476 55.1477 14.7793 55.1477 15.386C55.1477 15.75 55.045 16.408 54.8397 17.36C54.6623 18.172 54.5737 18.7087 54.5737 18.97C54.5737 19.3433 54.709 19.53 54.9797 19.53C55.1663 19.53 55.3857 19.418 55.6377 19.194C55.899 18.9607 56.2443 18.5873 56.6737 18.074C56.7857 17.9433 56.9117 17.878 57.0517 17.878C57.173 17.878 57.2663 17.934 57.3317 18.046C57.4063 18.158 57.4437 18.312 57.4437 18.508C57.4437 18.8813 57.355 19.1707 57.1777 19.376C56.7763 19.8707 56.3423 20.2767 55.8757 20.594C55.4183 20.9113 54.8957 21.07 54.3077 21.07C53.8317 21.07 53.4723 20.9347 53.2297 20.664C52.987 20.384 52.8657 19.9827 52.8657 19.46C52.8657 19.1987 52.931 18.732 53.0617 18.06C53.183 17.472 53.2437 17.066 53.2437 16.842C53.2437 16.6927 53.1923 16.618 53.0897 16.618C52.9683 16.618 52.7957 16.7767 52.5717 17.094C52.3477 17.402 52.1237 17.8127 51.8997 18.326C51.6757 18.8393 51.4937 19.3807 51.3537 19.95C51.251 20.398 51.1297 20.6967 50.9897 20.846C50.859 20.9953 50.6443 21.07 50.3457 21.07C50.0377 21.07 49.8043 20.9253 49.6457 20.636C49.4963 20.3373 49.4217 19.978 49.4217 19.558C49.4217 19.2033 49.4683 18.69 49.5617 18.018C49.6363 17.4207 49.6737 17.0287 49.6737 16.842C49.6737 16.6927 49.6223 16.618 49.5197 16.618C49.3797 16.618 49.2023 16.786 48.9877 17.122C48.773 17.458 48.563 17.8873 48.3577 18.41C48.1617 18.9327 48.003 19.446 47.8817 19.95C47.779 20.3887 47.6577 20.6873 47.5177 20.846C47.387 20.9953 47.177 21.07 46.8877 21.07ZM66.1429 17.08C66.4043 17.08 66.5349 17.276 66.5349 17.668C66.5349 18.4147 65.9376 18.788 64.7429 18.788C64.6963 18.788 64.4349 18.774 63.9589 18.746C64.0616 19.2407 64.1409 19.8053 64.1969 20.44C64.2623 21.0653 64.2949 21.6907 64.2949 22.316C64.2949 23.324 64.1223 24.094 63.7769 24.626C63.4409 25.158 63.0069 25.424 62.4749 25.424C61.8029 25.424 61.3223 24.948 61.0329 23.996C60.7529 23.044 60.6129 21.6067 60.6129 19.684C60.6129 19.1893 60.6269 18.69 60.6549 18.186C60.5709 18.1953 60.4356 18.2 60.2489 18.2C59.9969 18.2 59.7916 18.2047 59.6329 18.214C59.7263 18.9047 59.7963 19.5673 59.8429 20.202C59.8989 20.8367 59.9269 21.5413 59.9269 22.316C59.9269 23.324 59.7543 24.094 59.4089 24.626C59.0729 25.158 58.6389 25.424 58.1069 25.424C57.4349 25.424 56.9543 24.948 56.6649 23.996C56.3849 23.044 56.2449 21.6067 56.2449 19.684C56.2449 17.8827 56.4223 16.0627 56.7769 14.224C57.1409 12.376 57.6449 10.85 58.2889 9.646C58.9329 8.442 59.6609 7.84 60.4729 7.84C60.8929 7.84 61.2196 8.01733 61.4529 8.372C61.6956 8.71733 61.8169 9.21667 61.8169 9.87C61.8169 10.8873 61.5416 12.0213 60.9909 13.272C60.4496 14.5133 59.4883 15.82 58.1069 17.192C58.0229 18.0133 57.9809 18.8113 57.9809 19.586C57.9809 20.5473 58.0136 21.532 58.0789 22.54C58.1443 23.5573 58.2516 24.066 58.4009 24.066C58.5409 24.066 58.6529 23.9493 58.7369 23.716C58.8209 23.4827 58.8629 23.114 58.8629 22.61C58.8629 21.6953 58.8256 20.888 58.7509 20.188C58.6856 19.4787 58.6063 18.9093 58.5129 18.48C58.4943 18.4147 58.4849 18.3167 58.4849 18.186C58.4849 17.7847 58.6436 17.4533 58.9609 17.192C59.2876 16.9307 59.7169 16.7953 60.2489 16.786H60.5849H60.7809C60.9583 15.2367 61.2476 13.7807 61.6489 12.418C62.0596 11.046 62.5543 9.94 63.1329 9.1C63.7209 8.26 64.3509 7.84 65.0229 7.84C65.4616 7.84 65.8023 8.036 66.0449 8.428C66.2969 8.82 66.4229 9.34733 66.4229 10.01C66.4229 10.8313 66.2689 11.7507 65.9609 12.768C65.6529 13.7853 65.1956 14.742 64.5889 15.638C63.9916 16.5247 63.2776 17.192 62.4469 17.64C62.3816 18.2653 62.3489 18.914 62.3489 19.586C62.3489 20.5473 62.3816 21.532 62.4469 22.54C62.5123 23.5573 62.6196 24.066 62.7689 24.066C62.9089 24.066 63.0209 23.9493 63.1049 23.716C63.1889 23.4827 63.2309 23.114 63.2309 22.61C63.2309 21.882 63.1936 21.1867 63.1189 20.524C63.0443 19.8613 62.9649 19.32 62.8809 18.9C62.8623 18.8253 62.8529 18.7227 62.8529 18.592C62.8529 18.2093 62.9836 17.8873 63.2449 17.626C63.5063 17.3553 63.8049 17.22 64.1409 17.22C64.4583 17.22 64.7476 17.2107 65.0089 17.192C65.2796 17.164 65.4523 17.1453 65.5269 17.136C65.8443 17.0987 66.0496 17.08 66.1429 17.08ZM60.1789 9.226C60.0109 9.226 59.8103 9.51067 59.5769 10.08C59.3529 10.6493 59.1289 11.4053 58.9049 12.348C58.6809 13.2907 58.4896 14.294 58.3309 15.358C59.0403 14.518 59.5723 13.608 59.9269 12.628C60.2909 11.6387 60.4729 10.7427 60.4729 9.94C60.4729 9.70667 60.4449 9.52933 60.3889 9.408C60.3329 9.28667 60.2629 9.226 60.1789 9.226ZM64.7289 9.226C64.5423 9.226 64.3136 9.55267 64.0429 10.206C63.7816 10.8593 63.5203 11.7133 63.2589 12.768C63.0069 13.8227 62.7969 14.9147 62.6289 16.044C63.1609 15.624 63.6089 15.064 63.9729 14.364C64.3463 13.664 64.6216 12.9313 64.7989 12.166C64.9856 11.4007 65.0789 10.7053 65.0789 10.08C65.0789 9.51067 64.9623 9.226 64.7289 9.226ZM70.4838 18.298C70.6051 18.298 70.6985 18.354 70.7638 18.466C70.8385 18.578 70.8758 18.732 70.8758 18.928C70.8758 19.264 70.7965 19.5533 70.6378 19.796C70.3765 20.1973 70.0311 20.51 69.6018 20.734C69.1818 20.958 68.6778 21.07 68.0898 21.07C67.1938 21.07 66.4985 20.804 66.0038 20.272C65.5091 19.7307 65.2618 19.0027 65.2618 18.088C65.2618 17.444 65.3971 16.8467 65.6678 16.296C65.9385 15.736 66.3118 15.2927 66.7878 14.966C67.2731 14.6393 67.8191 14.476 68.4258 14.476C68.9671 14.476 69.4011 14.6393 69.7278 14.966C70.0545 15.2833 70.2178 15.7173 70.2178 16.268C70.2178 16.912 69.9845 17.4673 69.5178 17.934C69.0605 18.3913 68.2765 18.7553 67.1658 19.026C67.3898 19.4553 67.7678 19.67 68.2998 19.67C68.6825 19.67 68.9951 19.5813 69.2378 19.404C69.4898 19.2267 69.7791 18.928 70.1058 18.508C70.2178 18.368 70.3438 18.298 70.4838 18.298ZM68.1878 15.848C67.8425 15.848 67.5485 16.0487 67.3058 16.45C67.0725 16.8513 66.9558 17.3367 66.9558 17.906V17.934C67.5065 17.8033 67.9405 17.6073 68.2578 17.346C68.5751 17.0847 68.7338 16.7813 68.7338 16.436C68.7338 16.2587 68.6825 16.1187 68.5798 16.016C68.4865 15.904 68.3558 15.848 68.1878 15.848Z" fill="#442D25"/>
</svg>
