<svg viewBox="0 0 512 512" xmlns="http://www.w3.org/2000/svg"><path d="m437.019531 74.980469c-48.351562-48.351563-112.640625-74.980469-181.019531-74.980469s-132.667969 26.628906-181.019531 74.980469c-48.351563 48.351562-74.980469 112.640625-74.980469 181.019531s26.628906 132.667969 74.980469 181.019531c48.351562 48.351563 112.640625 74.980469 181.019531 74.980469s132.667969-26.628906 181.019531-74.980469c48.351563-48.351562 74.980469-112.640625 74.980469-181.019531s-26.628906-132.667969-74.980469-181.019531zm-21.214843 340.824219c-42.683594 42.6875-99.4375 66.195312-159.804688 66.195312s-117.121094-23.507812-159.804688-66.195312c-42.6875-42.683594-66.195312-99.4375-66.195312-159.804688s23.507812-117.121094 66.195312-159.804688c42.683594-42.6875 99.4375-66.195312 159.804688-66.195312s117.121094 23.507812 159.804688 66.195312c42.6875 42.683594 66.195312 99.4375 66.195312 159.804688s-23.507812 117.121094-66.195312 159.804688zm0 0"/><path d="m276 101h-90c-8.285156 0-15 6.714844-15 15v290c0 8.285156 6.714844 15 15 15s15-6.714844 15-15v-95h75c57.898438 0 105-47.101562 105-105s-47.101562-105-105-105zm0 180h-75v-150h75c41.355469 0 75 33.644531 75 75s-33.644531 75-75 75zm0 0"/></svg>