<?xml version="1.0" encoding="iso-8859-1"?>
<!-- Generator: Adobe Illustrator 19.0.0, SVG Export Plug-In . SVG Version: 6.00 Build 0)  -->
<svg version="1.1" id="Capa_1" xmlns="http://www.w3.org/2000/svg" xmlns:xlink="http://www.w3.org/1999/xlink" x="0px" y="0px"
	 viewBox="0 0 512 512" style="enable-background:new 0 0 512 512;" xml:space="preserve">
<g>
	<g>
		<path d="M464.876,112.43h-14.242c8.55-11.962,13.176-26.228,13.176-41.213c0-19.048-7.447-36.952-20.966-50.408
			c-27.858-27.745-73.185-27.746-101.041,0l-85.805,85.451l-85.795-85.453C142.344-6.925,97.015-6.925,69.156,20.806
			C55.635,34.265,48.189,52.168,48.189,71.217c0,14.986,4.626,29.252,13.175,41.213H47.123c-8.285,0-15.001,6.716-15.001,15.001
			v112.471c0,8.285,6.716,15.001,15.001,15.001h17.134v242.095c0,8.285,6.716,15.001,15.001,15.001h353.483
			c8.285,0,15.001-6.716,15.001-15.001V254.903h17.134c8.285,0,15.001-6.716,15.001-15.001V127.431
			C479.877,119.146,473.161,112.43,464.876,112.43z M90.322,42.07c8.096-8.058,18.726-12.085,29.359-12.085
			c10.63,0,21.263,4.027,29.354,12.082l70.645,70.363h-99.274h-0.32c-11.271,0.107-21.83-4.162-29.763-12.065
			c-7.823-7.788-12.132-18.139-12.132-29.148S82.501,49.856,90.322,42.07z M62.124,224.901v-82.469h57.275
			c0.074,0,0.148,0.005,0.222,0.005c0.292,0,0.585-0.002,0.877-0.005h120.5v82.469H62.124z M240.999,481.997H94.26V254.922h146.74
			V481.997z M362.975,42.066c16.185-16.117,42.517-16.116,58.701,0.003c7.823,7.788,12.132,18.139,12.132,29.148
			s-4.309,21.359-12.134,29.149c-7.935,7.9-18.456,12.173-29.76,12.064h-0.323h-99.272L362.975,42.066z M417.74,481.997H271.001
			V254.922H417.74V481.997z M449.875,224.901H271.001v-82.469h120.498c0.292,0.003,0.585,0.005,0.876,0.005
			c0.074,0,0.148-0.005,0.222-0.005h57.278V224.901z"/>
	</g>
</g>
<g>
</g>
<g>
</g>
<g>
</g>
<g>
</g>
<g>
</g>
<g>
</g>
<g>
</g>
<g>
</g>
<g>
</g>
<g>
</g>
<g>
</g>
<g>
</g>
<g>
</g>
<g>
</g>
<g>
</g>
</svg>
